<?xml version="1.0" encoding="utf-8"?>
<!-- Generator: Adobe Illustrator 23.0.3, SVG Export Plug-In . SVG Version: 6.00 Build 0)  -->
<svg version="1.1" id="Layer_1" xmlns="http://www.w3.org/2000/svg" xmlns:xlink="http://www.w3.org/1999/xlink" x="0px" y="0px"
	 viewBox="0 0 288 307.4" style="enable-background:new 0 0 288 307.4;" xml:space="preserve">
<style type="text/css">
	.st0{clip-path:url(#SVGID_2_);fill:#FFFFFF;}
	.st1{clip-path:url(#SVGID_2_);fill:#263349;}
	.st2{fill:#263349;}
	.st3{fill:#FFFFFF;}
	.st4{fill:#A6CE39;}
	.st5{fill:#00BFF3;}
	.st6{fill:#E61A4E;}
</style>
<g>
	<g>
		<defs>
			<rect id="SVGID_1_" width="288" height="307.4"/>
		</defs>
		<clipPath id="SVGID_2_">
			<use xlink:href="#SVGID_1_"  style="overflow:visible;"/>
		</clipPath>
		<polygon class="st0" points="286.9,228.1 1.3,228.1 1.3,1 286.9,1 286.9,228.1 		"/>
		<path class="st1" d="M0,0v307.4h288V0H0L0,0z M284.3,225.5H3.7V3.7h280.5V225.5L284.3,225.5z"/>
	</g>
	<polygon class="st2" points="273.9,111.9 14.2,111.9 14.2,12.2 273.9,12.2 273.9,111.9 	"/>
	<path class="st3" d="M47.1,23.2l7.4,33.8h-3.6l-2-10h-8.6l-2,10h-3.6L42,23.2H47.1L47.1,23.2z M40.8,43.9h7.6l-3.7-18.1h-0.1
		L40.8,43.9L40.8,43.9z"/>
	<polygon class="st3" points="69.9,23.2 75.8,48.7 75.9,48.7 81.6,23.2 87.4,23.2 87.4,56.9 84.1,56.9 84.1,26 84,26 77,56.9 
		74.6,56.9 67.6,26 67.5,26 67.5,56.9 64.1,56.9 64.1,23.2 69.9,23.2 	"/>
	<polygon class="st3" points="115.1,23.2 115.1,26.3 103.4,26.3 103.4,37.8 112.1,37.8 112.1,40.9 103.4,40.9 103.4,53.9 
		115.7,53.9 115.7,56.9 99.7,56.9 99.7,23.2 115.1,23.2 	"/>
	<path class="st3" d="M127,23.2h8.1c5.4,0,9.3,3.2,9.3,8.7c0,3.8-1.7,7-5.4,8.3l5.7,16.7h-3.8l-5.4-16l-4.8,0.2v15.8H127V23.2
		L127,23.2z M130.7,38h3.2c5.2,0,6.9-2.1,6.9-5.8c0-3.8-1.7-5.8-6.9-5.8h-3.2V38L130.7,38z"/>
	<polygon class="st3" points="160.9,23.2 160.9,56.9 157.2,56.9 157.2,23.2 160.9,23.2 	"/>
	<path class="st3" d="M187.7,33.4c-0.5-5.3-2.2-7.6-5-7.6c-4.3,0-6.1,3.7-6.1,14.3c0,10.5,1.9,14.3,6.1,14.3c3.4,0,5.4-2.3,5.5-8.6
		h3.6c-0.1,7.5-3.4,11.7-9.1,11.7c-6,0-9.8-4.6-9.8-17.4c0-12.8,3.7-17.4,9.8-17.4c5,0,8.1,3.5,8.7,10.7H187.7L187.7,33.4z"/>
	<path class="st3" d="M213.7,23.2l7.4,33.8h-3.6l-2-10h-8.6l-2,10h-3.6l7.4-33.8H213.7L213.7,23.2z M207.3,43.9h7.6l-3.7-18.1h-0.1
		L207.3,43.9L207.3,43.9z"/>
	<polygon class="st3" points="229.7,23.2 229.7,27.9 226.9,34.6 225.5,34.6 227.7,27.6 225.8,27.6 225.8,23.2 229.7,23.2 	"/>
	<path class="st3" d="M251,31.9c-0.3-3.5-1.7-6.1-5.2-6.1c-2.8,0-4.6,1.9-4.6,4.4c0,7.6,13.6,7.7,13.6,18.6c0,5.4-3.1,8.6-8.7,8.6
		c-5.3,0-8.5-3.9-8.6-9.5h3.4c0.1,4,2,6.5,5.6,6.5c3,0,5-2,5-5.6c0-7.7-13.6-8.6-13.6-18.2c0-4.8,3.3-7.9,8.1-7.9
		c4.9,0,8,3.3,8.3,9.2H251L251,31.9z"/>
	<polygon class="st3" points="35.3,99 35.3,63.5 52.3,63.5 52.3,68.8 41.4,68.8 41.4,78 49.6,78 49.6,83.3 41.4,83.3 41.4,99 
		35.3,99 	"/>
	<path class="st3" d="M68.7,99h-5.9l6.5-35.5H77L83.5,99h-5.9l-1.1-7.9h-6.7L68.7,99L68.7,99z M70.7,85.8h4.9l-2.4-15.3h-0.1
		L70.7,85.8L70.7,85.8z"/>
	<path class="st3" d="M103,99h-6.1V63.5h8.6c6.8,0,10.3,2.9,10.3,10.5c0,5.7-2.2,8-4.3,9l5.2,16.1h-6.2l-4.3-14.7
		c-0.8,0.1-2.1,0.1-3.2,0.1V99L103,99z M103,79.4h2.2c3.3,0,4.5-1.2,4.5-5.5c0-4.2-1.2-5.5-4.5-5.5H103V79.4L103,79.4z"/>
	<polygon class="st3" points="155.9,63.5 155.9,99 150.5,99 150.5,71.3 150.4,71.3 144.9,99 142,99 136.5,71.3 136.4,71.3 136.4,99 
		131,99 131,63.5 139.1,63.5 143.4,84.3 143.5,84.3 147.8,63.5 155.9,63.5 	"/>
	<polygon class="st3" points="171.3,99 171.3,63.5 187.7,63.5 187.7,68.8 177.4,68.8 177.4,78 185.3,78 185.3,83.3 177.4,83.3 
		177.4,93.7 188.4,93.7 188.4,99 171.3,99 	"/>
	<path class="st3" d="M209.1,99H203V63.5h8.6c6.8,0,10.3,2.9,10.3,10.5c0,5.7-2.2,8-4.3,9l5.2,16.1h-6.2l-4.3-14.7
		c-0.8,0.1-2.1,0.1-3.2,0.1V99L209.1,99z M209.1,79.4h2.2c3.3,0,4.5-1.2,4.5-5.5c0-4.2-1.2-5.5-4.5-5.5h-2.2V79.4L209.1,79.4z"/>
	<path class="st3" d="M248.6,72.3c-0.2-3.1-1.9-3.9-3.2-3.9c-2,0-3.1,1.3-3.1,3.5c0,6.1,12.4,9,12.4,18.6c0,5.9-3.9,9.1-9.6,9.1
		c-5.7,0-8.9-4.5-9.2-9.8l5.8-0.8c0.2,3.6,1.7,5.4,3.6,5.4c2.1,0,3.5-1.1,3.5-3.3c0-7-12.4-8.9-12.4-19.1c0-5.7,3.4-8.9,9.5-8.9
		c5,0,7.9,3.6,8.5,8.6L248.6,72.3L248.6,72.3z"/>
	<polygon class="st3" points="284.3,302.6 3.8,302.6 3.8,230 284.3,230 284.3,302.6 	"/>
	<path class="st2" d="M40.9,246.4h3.3c0.4,0,0.7-0.3,0.7-0.7c0-0.4-0.3-0.7-0.7-0.7h-3.3V246.4L40.9,246.4z M40.9,249.6h3.4
		c0.4,0,0.7-0.3,0.7-0.7c0-0.4-0.3-0.7-0.7-0.7h-3.4V249.6L40.9,249.6z M46.1,247.2c0.4,0.4,0.7,1,0.7,1.7c0,1.3-1.1,2.4-2.4,2.4H39
		v-7.8h5.4c1.3,0,2.3,1,2.3,2.3C46.7,246.2,46.5,246.8,46.1,247.2L46.1,247.2z"/>
	<path class="st2" d="M47.4,260.6h-2l-0.6-1.3h-4.4l-0.6,1.3h-2l3.9-7.8h1.8L47.4,260.6L47.4,260.6z M42.6,254.7l-1.4,2.8h2.8
		L42.6,254.7L42.6,254.7z"/>
	<polygon class="st2" points="45.2,262.3 47.5,262.3 43.5,267.4 43.5,270.1 41.6,270.1 41.6,267.4 37.7,262.3 39.9,262.3 
		42.6,265.8 45.2,262.3 	"/>
	<polygon class="st2" points="55.6,262.3 55.6,263.9 50.4,263.9 50.4,265.2 55.4,265.2 55.4,266.9 50.4,266.9 50.4,268.4 
		55.6,268.4 55.6,270.1 48.5,270.1 48.5,262.3 55.6,262.3 	"/>
	<path class="st2" d="M61.4,267.1H60v3h-1.9v-7.8h4.8c1.3,0,2.4,1.1,2.4,2.4c0,1.1-0.7,2-1.7,2.3l2.3,3.1h-2.2L61.4,267.1
		L61.4,267.1z M62.7,263.9H60v1.5h2.7c0.4,0,0.7-0.3,0.7-0.7C63.4,264.3,63.1,263.9,62.7,263.9L62.7,263.9z"/>
	<path class="st2" d="M38.5,270.1h-2l-0.6-1.3h-4.4l-0.6,1.3h-2l3.9-7.8h1.8L38.5,270.1L38.5,270.1z M33.7,264.3l-1.4,2.8h2.8
		L33.7,264.3L33.7,264.3z"/>
	<path class="st2" d="M21.8,265.3h3.3c0.4,0,0.7-0.3,0.7-0.7c0-0.4-0.3-0.7-0.7-0.7h-3.3V265.3L21.8,265.3z M21.8,268.4h3.4
		c0.4,0,0.7-0.3,0.7-0.7c0-0.4-0.3-0.7-0.7-0.7h-3.4V268.4L21.8,268.4z M27.1,266c0.4,0.4,0.7,1,0.7,1.7c0,1.3-1.1,2.4-2.4,2.4H20
		v-7.8h5.4c1.3,0,2.3,1,2.3,2.3C27.6,265.1,27.4,265.6,27.1,266L27.1,266z"/>
	<polygon class="st2" points="46.1,271.8 46.1,273.5 40.9,273.5 40.9,274.8 45.9,274.8 45.9,276.4 40.9,276.4 40.9,277.9 
		46.1,277.9 46.1,279.6 39,279.6 39,271.8 46.1,271.8 	"/>
	<path class="st2" d="M44.8,283.9c0-0.4-0.3-0.7-0.7-0.7h-3.2v1.5h3.2C44.5,284.7,44.8,284.3,44.8,283.9L44.8,283.9z M39,289.3v-7.8
		h5.2c1.3,0,2.4,1.1,2.4,2.4c0,1-0.6,1.9-1.5,2.3l2.4,3.2h-2.2l-2.2-3h-2.1v3H39L39,289.3z"/>
	<path class="st4" d="M70.9,264.6C70,249.7,57.6,238,42.6,238c-15.1,0-27.4,11.8-28.3,26.6c0,0.6,0.1,1.2,0.2,1.8
		c0.6,4.9,2.5,9.5,5.3,13.3c5.2,7,13.5,11.5,22.8,11.5c-13.1,0-23.9-10.2-24.8-23.1c0-0.6-0.1-1.2-0.1-1.8c0-0.6,0-1.2,0.1-1.8
		c0.9-12.9,11.7-23.1,24.8-23.1c9.4,0,17.7,4.5,22.8,11.5c2.8,3.8,4.7,8.4,5.3,13.3c0.1,0.6,0.1,1.2,0.2,1.7c0-0.6,0.1-1.2,0.1-1.8
		C70.9,265.7,70.9,265.1,70.9,264.6"/>
	<path class="st5" d="M14.3,268.1c0.9,14.8,13.2,26.6,28.3,26.6c15.1,0,27.4-11.8,28.3-26.6c0-0.6-0.1-1.2-0.2-1.8
		c-0.6-4.9-2.5-9.5-5.3-13.3c-5.2-7-13.5-11.5-22.8-11.5c13.1,0,23.9,10.2,24.8,23.1c0,0.6,0.1,1.2,0.1,1.8c0,0.6,0,1.2-0.1,1.8
		c-0.9,12.9-11.7,23.1-24.8,23.1c-9.4,0-17.7-4.5-22.8-11.5c-2.8-3.8-4.7-8.4-5.3-13.3c-0.1-0.6-0.1-1.2-0.2-1.7
		c0,0.6-0.1,1.2-0.1,1.8C14.2,266.9,14.2,267.5,14.3,268.1"/>
	<path class="st2" d="M99.1,281c-1.4,0.4-3.2,0.5-4.8,0.5h-9.2v-30.2h6.4c5.1,0,6.5,0.1,8.3,1.1c2.7,1.4,4.1,3.6,4.1,6.3
		c0,3.2-1.8,5.6-5.5,6.7c4.6,1,6.8,3.9,6.8,7.8C105.2,277.4,102.6,280.1,99.1,281L99.1,281z M96.4,255.1c-0.7-0.2-1.5-0.3-3.1-0.3
		h-4.1v9.2H94c2.7,0,3.6-0.5,4.5-1.7c0.6-0.8,0.9-1.9,0.9-2.9C99.4,257.3,98.2,255.6,96.4,255.1L96.4,255.1z M97.3,267.8
		c-0.8-0.2-1.7-0.3-3.2-0.3h-4.9v10.5h6c2.5,0,5.3-1.5,5.3-5.4C100.6,270.2,99.2,268.2,97.3,267.8L97.3,267.8z"/>
	<path class="st2" d="M122.6,279.2c-0.6,0.7-2.5,2.9-6.5,2.9c-4.6,0-7.5-2.2-7.5-6.5c0-5.1,4.3-7.8,11.8-7.8c0.6,0,1,0,1.6,0v-1.4
		c0-2.6-0.4-4.3-3.6-4.3c-2.4,0-5.2,1.1-7.1,2.5l-1.9-2.9c2.3-1.2,5.2-2.9,9.7-2.9c3.4,0,5.8,1.2,6.7,3.5c0.4,1,0.5,1.7,0.5,3.9
		c0,1.6-0.2,5-0.2,8.2c0,3,0,4.2,1.8,5.3l-2,2.8C124.4,281.9,123.2,280.8,122.6,279.2L122.6,279.2z M120.5,270.6
		c-3.2,0-5.1,0.6-6,1.6c-0.9,1-1.2,1.8-1.2,3.2c0,2.4,1.3,3.8,3.6,3.8c1.9,0,3.8-1.1,4.8-2.9l0.1-5.6
		C121.2,270.6,120.9,270.6,120.5,270.6L120.5,270.6z"/>
	<path class="st2" d="M153.9,271.9c0,1.9,0.3,3.3,0.9,4.4c1.1,1.8,2.9,2.6,5,2.6c2.1,0,3.8-0.7,5.4-2.1l1.5,2.4
		c-2.2,1.9-4.7,2.8-7.6,2.8c-6.1,0-9.8-4.4-9.8-11.6c0-3.8,0.7-6.3,2.6-8.5c1.8-2.1,3.9-3,6.6-3c2.5,0,4.4,0.8,6,2.4
		c1.9,2,2.6,4.4,2.7,9.5v0.7h-13.4V271.9L153.9,271.9z M161.7,263.4c-0.7-0.9-1.8-1.5-3.2-1.5c-3.1,0-4.6,2.5-4.6,6.5h9.1
		C163.1,266.3,162.6,264.5,161.7,263.4L161.7,263.4z"/>
	<path class="st2" d="M180.4,262.8c-2.5,0-4.6,2.1-4.6,4.5v14.2h-4v-16.2c0-2.7-0.3-4.1-0.8-5.5l3.9-1c0.4,0.8,0.7,2.3,0.7,3.4v0.4
		c1.8-2.5,3.6-3.8,6-3.8c0.5,0,1.1,0.1,1.4,0.3l-1.5,4C181.1,262.9,180.8,262.8,180.4,262.8L180.4,262.8z"/>
	<path class="st2" d="M139,276.4l5.5-16.9h4.5l-8.6,23.3c-1.1,3.1-2.3,5-3.9,6.3c-1.1,0.9-2.7,1.6-4.3,1.9l-1.3-2.6
		c1.7-0.4,2.9-1.1,4-2.5c0.7-0.9,1.6-1.9,2.5-4.4l-8.7-21.2l3.9-1.1C132.6,259.1,137.9,273.4,139,276.4L139,276.4L139,276.4z"/>
	<polygon class="st5" points="210.1,254.2 198.9,254.2 198.9,263.6 208,263.6 208,267.1 198.9,267.1 198.9,281.6 194.5,281.6 
		194.5,250.6 210.7,250.6 210.1,254.2 	"/>
	<path class="st5" d="M227.9,282.4c-1.1-0.9-1.7-1.7-2.1-3.2c-1.8,2.2-4,3.2-6.8,3.2c-2.9,0-5.1-1.3-6.1-3.4
		c-0.4-0.9-0.5-2.2-0.5-3.8v-16l4.1-0.8v15.7c0,2.3,0.2,3.2,1,4c0.6,0.5,1.6,1,2.6,1c2,0,4.2-1.6,5.1-3.6v-16.2l4.1-0.8v17
		c0,2.3,0.5,3.9,1.4,4.7L227.9,282.4L227.9,282.4z"/>
	<path class="st5" d="M247,281.6v-15.2c0-2-0.2-2.7-0.7-3.5c-0.4-0.6-1.3-0.9-2.3-0.9c-1.6,0-4.1,1.3-5.6,2.9v16.7h-4.1v-16.8
		c0-2.7-0.2-3.7-0.9-5.4l3.9-1.1c0.5,1.1,0.8,2.1,0.8,3.5c1.4-1.2,2.1-1.7,2.9-2.2c1.3-0.8,2.8-1.1,4.2-1.1c2.4,0,4.5,1.3,5.3,3.2
		c0.4,0.8,0.5,1.8,0.5,2.8v17H247L247,281.6z"/>
	<path class="st5" d="M269.9,281.6c-0.2-0.7-0.3-1-0.4-2.1c-1.6,1.7-3.4,2.5-5.8,2.5c-5.8,0-9.1-4.3-9.1-11.4
		c0-4.9,1.7-8.6,4.7-10.6c1.4-0.9,2.8-1.3,4.4-1.3c2.2,0,4,0.8,5.5,2.6c0-0.6-0.1-2.4-0.1-4v-8.8l4.1,0.7v24.8
		c0,3.6,0.1,6.2,0.6,7.6H269.9L269.9,281.6z M269.1,264.1c-1.2-1.4-2.7-2.1-4.8-2.1c-1.7,0-3.1,0.9-3.9,2.3
		c-0.9,1.5-1.2,3.3-1.2,6.2c0,4.4,0.5,5.6,1.8,6.8c0.8,0.8,1.8,1.2,3.3,1.2c2.4,0,4-1.3,4.8-2.6V264.1L269.1,264.1z"/>
	<polygon class="st6" points="273.9,213.4 14.2,213.4 14.2,169.6 273.9,169.6 273.9,213.4 	"/>
	<path class="st6" d="M67.8,131c-0.5,0.3-0.9,0.4-1.4,0.4h-1.8c-0.5,0-0.8-0.1-1.2-0.3c-0.6-3.4-1.2-5.6-2.9-7.2
		c-1.8-1.7-7.6-3.6-11.4-3.6c-12,0-15.4,5.1-15.4,21.1c0,18.4,6.4,23.9,14,23.9c5.1,0,8.4-0.7,10.5-1.8v-16
		c-1.8-0.6-3.7-0.9-7.5-0.9c-0.3-0.5-0.4-1-0.4-1.5v-1.8c0-0.6,0.1-1,0.5-1.5h22.9c0.2,0.3,0.4,0.9,0.4,1.5v1.8
		c0,0.7-0.2,1.2-0.4,1.5c-2.3,0-3.5,0.2-4,0.7v18c-2.8,3.4-11.4,5.4-21,5.4c-16.2,0-27.7-10.1-27.7-28.2c0-18.5,11-27.7,28-27.7
		c7.9,0,14.9,2.2,19.2,4L67.8,131L67.8,131z"/>
	<path class="st6" d="M102.4,116c14.1,0,19.4,4.8,19.4,13.2c0,9.1-5,13-9.3,14.9l8.7,15.2c1.3,2.8,4.9,5.5,7.5,5.5
		c0.4,0.7,0.6,1.2,0.6,1.6v1.8c0,0.4-0.2,0.9-0.7,1.5h-18.8c-0.5-0.5-0.7-1-0.7-1.5v-2.1c1.1-0.2,2.1-1.4,2.3-2.3l-9.5-17.2h-1.2
		c-1.6,0-2.9,0.3-4,0.8v16.8c1,0.4,2.7,0.6,5.2,0.6c0.4,0.4,0.7,1,0.7,1.6v1.8c0,0.7-0.2,1.1-0.7,1.5H80c-0.5-0.4-0.8-0.8-0.8-1.5
		v-1.8c0-0.7,0.3-1.2,0.8-1.6c2.4,0,4.1-0.2,5.1-0.6v-42.6c-1-0.5-2.6-0.7-5.1-0.7c-0.5-0.4-0.8-0.9-0.8-1.6v-1.9
		c0-0.7,0.3-1.1,0.8-1.4H102.4L102.4,116z M96.8,140.5c1.1,0.7,2.4,0.9,4,0.9c8.1,0,9.5-2.6,9.5-9.9c0-7.8-3.7-10.2-9.3-10.2
		c-1.4,0-2.9,0.3-4.2,0.9V140.5L96.8,140.5z"/>
	<path class="st6" d="M187.3,142.4c0,18.4-11,28.5-27.5,28.5c-17.3,0-27.1-10.2-27.1-28c0-17.6,10.6-27.9,27.1-27.9
		C175.5,115,187.3,123.6,187.3,142.4L187.3,142.4z M145.5,142c0,16.5,3.7,22.9,15.1,22.9c11.2,0,13.8-5.3,13.8-21.4
		c0-17.6-4.3-22.8-15.1-22.8C148.8,120.8,145.5,125.8,145.5,142L145.5,142z"/>
	<path class="st6" d="M211.8,116c0.2,0.3,0.4,0.8,0.4,1.4v1.9c0,0.5-0.1,1.1-0.2,1.6c-2.6,0.2-4.7,0.5-6.4,1.3l4.5,38.9h0.7
		l7.3-33.1c0.4-2.1,1.2-4.4,2.3-6.4h12.8c0.8,1.9,1.6,3.9,2.1,6.4l6.8,33.1h0.7l11.7-38.8c-1.8-0.8-3.9-1.1-6.8-1.3
		c-0.4-0.7-0.6-1.2-0.6-1.6v-1.9c0-0.4,0.1-0.9,0.4-1.4h24.2c0.4,0.5,0.5,1,0.5,1.4v1.9c0,0.5-0.1,1-0.5,1.6c-2.3,0-4.4,0.4-6.4,1.4
		L251,168.4c-0.1,0.4-0.3,0.9-0.7,1.4h-16.1c-0.4-0.4-0.7-0.9-0.8-1.4l-8.7-35.9h-0.9l-9.1,35.9c-0.1,0.5-0.4,1-0.9,1.4h-13
		c-0.2-0.5-0.5-0.9-0.6-1.4l-7-46.1c-1.1-0.7-3.4-1.1-6.6-1.3c-0.4-0.4-0.5-0.9-0.5-1.5v-1.9c0-0.5,0.1-1,0.4-1.5H211.8L211.8,116z"
		/>
	<path class="st3" d="M38.8,177.5l6.2,28h-3l-1.7-8.3h-7.1l-1.7,8.3h-3l6.2-28H38.8L38.8,177.5z M33.5,194.6h6.3l-3.1-15h-0.1
		L33.5,194.6L33.5,194.6z"/>
	<path class="st3" d="M66.4,186.1c-0.2-3.6-1.3-6.4-4.4-6.4c-3.4,0-5,3-5,11.8c0,8.8,1.6,11.8,5,11.8c2.8,0,4.4-1.5,4.4-4.4v-4h-3.8
		v-2.6h6.8v13.1h-1.9l-0.4-2.1c-1.2,1.5-2.8,2.5-5.1,2.5c-4.9,0-8-3.8-8-14.4c0-10.6,3.1-14.4,8-14.4c5.2,0,7,4.5,7.4,9H66.4
		L66.4,186.1z"/>
	<polygon class="st3" points="99.7,177.5 99.7,202.9 108.8,202.9 108.8,205.4 96.7,205.4 96.7,177.5 99.7,177.5 	"/>
	<polygon class="st3" points="131.5,177.5 131.5,180 121.8,180 121.8,189.6 129,189.6 129,192.1 121.8,192.1 121.8,202.9 132,202.9 
		132,205.4 118.7,205.4 118.7,177.5 131.5,177.5 	"/>
	<path class="st3" d="M151,177.5l6.2,28h-3l-1.7-8.3h-7.1l-1.7,8.3h-3l6.2-28H151L151,177.5z M145.8,194.6h6.3l-3.1-15h-0.1
		L145.8,194.6L145.8,194.6z"/>
	<path class="st3" d="M167.1,177.5h5.2c5.9,0,9.5,3.3,9.5,14c0,10.7-3.6,14-9.5,14h-5.2V177.5L167.1,177.5z M170.1,202.9h1.6
		c4.4,0,7-1.9,7-11.4s-2.6-11.4-7-11.4h-1.6V202.9L170.1,202.9z"/>
	<polygon class="st3" points="206.2,177.5 206.2,180 196.4,180 196.4,189.6 203.6,189.6 203.6,192.1 196.4,192.1 196.4,202.9 
		206.7,202.9 206.7,205.4 193.4,205.4 193.4,177.5 206.2,177.5 	"/>
	<path class="st3" d="M217.6,177.5h6.7c4.5,0,7.7,2.6,7.7,7.2c0,3.1-1.4,5.8-4.5,6.9l4.7,13.9H229l-4.5-13.2l-4,0.2v13.1h-3V177.5
		L217.6,177.5z M220.6,189.7h2.6c4.3,0,5.7-1.7,5.7-4.8c0-3.1-1.4-4.8-5.7-4.8h-2.6V189.7L220.6,189.7z"/>
	<path class="st3" d="M253.9,184.7c-0.2-2.9-1.4-5-4.3-5c-2.3,0-3.8,1.5-3.8,3.7c0,6.3,11.2,6.4,11.2,15.4c0,4.5-2.6,7.1-7.2,7.1
		c-4.4,0-7-3.2-7.1-7.9h2.8c0.1,3.3,1.6,5.3,4.6,5.3c2.5,0,4.1-1.6,4.1-4.6c0-6.4-11.2-7.1-11.2-15.1c0-4,2.7-6.5,6.7-6.5
		c4,0,6.7,2.7,6.9,7.6H253.9L253.9,184.7z"/>
</g>
</svg>
