<svg id="Layer_1" data-name="Layer 1" xmlns="http://www.w3.org/2000/svg" viewBox="0 0 216.9467 173.4769"><defs><style>.cls-1{fill:none;stroke:#8f8c8a;stroke-miterlimit:10;stroke-width:2.89px;}.cls-2{fill:#8f8c8a;}.cls-3{fill:#fff;}</style></defs><title>GrowAmerica_Gray</title><rect class="cls-1" x="1.445" y="1.445" width="214.0567" height="170.5869"/><rect class="cls-2" x="10.7116" y="127.6504" width="195.5235" height="33.0058"/><path class="cls-2" d="M122.0175,192.6164a2.0859,2.0859,0,0,1-1.0488.333h-1.375a1.5048,1.5048,0,0,1-.8818-.2216c-.4405-2.5323-.88-4.2422-2.1456-5.45-1.3789-1.27-5.7285-2.7012-8.5947-2.7012-9.0322,0-11.62,3.8535-11.62,15.916,0,13.8223,4.8477,18.0107,10.5762,18.0107,3.8554,0,6.334-.5517,7.93-1.3769V205.1194a17.3088,17.3088,0,0,0-5.6729-.6612,2.3034,2.3034,0,0,1-.331-1.1552V201.98a1.8144,1.8144,0,0,1,.3867-1.1553h17.2363a2.0337,2.0337,0,0,1,.332,1.1553v1.3233a2.0385,2.0385,0,0,1-.332,1.1552c-1.7061,0-2.6426.1641-3.0293.55v13.5489c-2.0918,2.5878-8.59,4.0781-15.8047,4.0781-12.17,0-20.8711-7.6016-20.8711-21.207,0-13.9317,8.2578-20.8145,21.09-20.8145a39.39,39.39,0,0,1,14.4843,2.9727Z" transform="translate(-70.8713 -93.9966)"/><path class="cls-2" d="M148.0742,181.383c10.6289,0,14.5957,3.58,14.5957,9.9678,0,6.8818-3.8008,9.749-6.9961,11.18l6.5547,11.456c.9912,2.0938,3.6914,4.13,5.6728,4.13a2.7268,2.7268,0,0,1,.44,1.2129v1.374a2.0655,2.0655,0,0,1-.4961,1.1045H153.6923a1.5223,1.5223,0,0,1-.5517-1.1045V219.11a2.5866,2.5866,0,0,0,1.7636-1.7637l-7.16-12.9433h-.9356a6.8068,6.8068,0,0,0-2.9765.6054v12.668a12.5622,12.5622,0,0,0,3.9121.44,1.5415,1.5415,0,0,1,.4941,1.2129v1.374a1.3194,1.3194,0,0,1-.4941,1.1045H131.2226a1.2725,1.2725,0,0,1-.6055-1.1045v-1.374a1.3922,1.3922,0,0,1,.6055-1.2129,12.3931,12.3931,0,0,0,3.8555-.44V185.6213a8.9961,8.9961,0,0,0-3.8555-.5488,1.3883,1.3883,0,0,1-.6055-1.21V182.428a1.1167,1.1167,0,0,1,.6055-1.045Zm-4.2422,18.3946a5.6658,5.6658,0,0,0,2.9765.7148c6.0577,0,7.1582-1.9287,7.1582-7.4355,0-5.836-2.8066-7.6543-6.9941-7.6543a7.0651,7.0651,0,0,0-3.1406.7158Z" transform="translate(-70.8713 -93.9966)"/><path class="cls-2" d="M211.9687,201.2092c0,13.8242-8.2617,21.4258-20.707,21.4258-13.0547,0-20.4336-7.7129-20.4336-21.041,0-13.2168,7.9863-20.98,20.4336-20.98C203.1035,180.6135,211.9687,187.0559,211.9687,201.2092Zm-31.4473-.2754c0,12.4473,2.7539,17.2383,11.3985,17.2383,8.43,0,10.41-4.02,10.41-16.082,0-13.2178-3.25-17.127-11.3437-17.127C182.9433,184.9631,180.5214,188.7072,180.5214,200.9338Z" transform="translate(-70.8713 -93.9966)"/><path class="cls-2" d="M230.373,181.383a1.8268,1.8268,0,0,1,.2715,1.045v1.4345a8.8507,8.8507,0,0,1-.1641,1.21,14.72,14.72,0,0,0-4.8457.99l3.4141,29.3008h.5527l5.5059-24.9473a20.034,20.034,0,0,1,1.707-4.7949h9.6387a26.0011,26.0011,0,0,1,1.5976,4.7949l5.1211,24.9473h.5508l8.8008-29.1748a15.34,15.34,0,0,0-5.1211-.9932,2.7315,2.7315,0,0,1-.4434-1.2109V182.553a1.9338,1.9338,0,0,1,.334-1.0469h18.209a1.8881,1.8881,0,0,1,.3828,1.0469v1.4316a2.2268,2.2268,0,0,1-.3828,1.2109,11.2837,11.2837,0,0,0-4.85,1.0489L259.8691,220.759a2.9035,2.9035,0,0,1-.4961,1.0488H247.2792a2.8877,2.8877,0,0,1-.6054-1.0488l-6.5547-26.9834h-.6621l-6.8848,26.9834a2.384,2.384,0,0,1-.6582,1.0488h-9.8066a4.3792,4.3792,0,0,1-.4395-1.0488l-5.2324-34.6963a12.8175,12.8175,0,0,0-4.957-.99,1.5491,1.5491,0,0,1-.3829-1.1563v-1.4336a1.9753,1.9753,0,0,1,.3282-1.1Z" transform="translate(-70.8713 -93.9966)"/><rect class="cls-2" x="10.7107" y="9.2175" width="195.5254" height="75.0615"/><path class="cls-3" d="M105.8124,111.4743l5.6,25.4268h-2.7465l-1.5147-7.5366h-6.48l-1.5141,7.5366H96.41l5.6-25.4268Zm-4.7539,15.566h5.7051l-2.8174-13.6641h-.07Z" transform="translate(-70.8713 -93.9966)"/><path class="cls-3" d="M122.996,111.4743l4.437,19.2286h.0708l4.3316-19.2286h4.3667v25.4268h-2.5357v-23.314h-.07l-5.2827,23.314h-1.7959l-5.2827-23.314h-.07v23.314h-2.5357V111.4743Z" transform="translate(-70.8713 -93.9966)"/><path class="cls-3" d="M157.0478,111.4743v2.3243h-8.8745v8.6635h6.55v2.3242h-6.55v9.7906h9.2973v2.3242H145.4262V111.4743Z" transform="translate(-70.8713 -93.9966)"/><path class="cls-3" d="M165.99,111.4743h6.1279c4.085,0,6.9731,2.3946,6.9731,6.5855,0,2.8525-1.268,5.2475-4.0854,6.2334l4.2969,12.6079h-2.8882l-4.085-12.0444-3.5923.1411v11.9033H165.99Zm2.747,11.1285h2.3946c3.9443,0,5.2124-1.5494,5.2124-4.4019s-1.2681-4.4023-5.2124-4.4023h-2.3946Z" transform="translate(-70.8713 -93.9966)"/><path class="cls-3" d="M191.4843,111.4743v25.4268h-2.7471V111.4743Z" transform="translate(-70.8713 -93.9966)"/><path class="cls-3" d="M211.6982,119.1516c-.3526-4.0147-1.62-5.7051-3.7686-5.7051-3.2051,0-4.6133,2.8174-4.6133,10.7412s1.4082,10.7412,4.6133,10.7412c2.5713,0,4.05-1.7607,4.12-6.48h2.7471c-.07,5.6348-2.5351,8.8042-6.8672,8.8042-4.5429,0-7.36-3.4511-7.36-13.0654s2.8174-13.0654,7.36-13.0654c3.7686,0,6.0928,2.6059,6.5147,8.0293Z" transform="translate(-70.8713 -93.9966)"/><path class="cls-3" d="M231.205,111.4743l5.6,25.4268h-2.747l-1.5137-7.5366h-6.4805l-1.5146,7.5366h-2.7461l5.5986-25.4268Zm-4.7539,15.566h5.7051l-2.8174-13.6641h-.07Z" transform="translate(-70.8713 -93.9966)"/><path class="cls-3" d="M243.2812,111.4743v3.5215l-2.1123,5.0713h-1.0567l1.62-5.2827h-1.4092v-3.31Z" transform="translate(-70.8713 -93.9966)"/><path class="cls-3" d="M259.3388,118.0246c-.2109-2.6059-1.2676-4.5781-3.9092-4.5781a3.2559,3.2559,0,0,0-3.4863,3.3457c0,5.74,10.2129,5.8106,10.2129,13.981,0,4.05-2.3242,6.48-6.5147,6.48-3.9795,0-6.375-2.9228-6.4453-7.184h2.5362c.07,2.9931,1.4785,4.86,4.19,4.86,2.2891,0,3.7685-1.479,3.7685-4.1909,0-5.7754-10.2128-6.4448-10.2128-13.7,0-3.5918,2.4648-5.916,6.1279-5.916s6.0566,2.4648,6.2685,6.9023Z" transform="translate(-70.8713 -93.9966)"/><path class="cls-3" d="M96.9536,168.5827v-26.76h12.8242v4.0029H101.55V152.72h6.1524v4.0029H101.55v11.86Z" transform="translate(-70.8713 -93.9966)"/><path class="cls-3" d="M122.1215,168.5827h-4.4477l4.9292-26.76h5.708l4.9292,26.76h-4.4473l-.8154-5.93h-5.04Zm1.4824-9.9331h3.7066l-1.8164-11.49H125.42Z" transform="translate(-70.8713 -93.9966)"/><path class="cls-3" d="M147.9194,168.5827h-4.5962v-26.76h6.4492c5.1519,0,7.7832,2.1865,7.7832,7.8945,0,4.2993-1.6675,6.041-3.2241,6.7456l3.8916,12.12h-4.67l-3.2613-11.082a22.1451,22.1451,0,0,1-2.372.1113Zm0-14.7514H149.55c2.4829,0,3.41-.9263,3.41-4.1138s-.9268-4.1143-3.41-4.1143h-1.6308Z" transform="translate(-70.8713 -93.9966)"/><path class="cls-3" d="M187.69,141.823v26.76h-4.003V147.6789h-.0742l-4.1509,20.9038h-2.2241l-4.1509-20.9038h-.0742v20.9038H169.01v-26.76h6.0415l3.2617,15.6406h.0737l3.2618-15.6406Z" transform="translate(-70.8713 -93.9966)"/><path class="cls-3" d="M199.33,168.5827v-26.76h12.3057v4.0029h-7.71V152.72h5.9307v4.0029h-5.9307V164.58h8.2285v4.0029Z" transform="translate(-70.8713 -93.9966)"/><path class="cls-3" d="M227.7958,168.5827H223.2v-26.76h6.4493c5.1523,0,7.7832,2.1865,7.7832,7.8945,0,4.2993-1.668,6.041-3.2247,6.7456l3.8916,12.12h-4.67l-3.2617-11.082a22.1408,22.1408,0,0,1-2.3721.1113Zm0-14.7514h1.6309c2.4834,0,3.41-.9263,3.41-4.1138s-.9268-4.1143-3.41-4.1143h-1.6309Z" transform="translate(-70.8713 -93.9966)"/><path class="cls-3" d="M257.5234,148.42c-.1856-2.2978-1.4092-2.9648-2.4463-2.9648-1.4824,0-2.2979.9634-2.2979,2.6313,0,4.5586,9.34,6.7456,9.34,14.01,0,4.4107-2.9649,6.8569-7.2647,6.8569-4.2627,0-6.709-3.41-6.8935-7.4126l4.373-.63c.1856,2.706,1.2608,4.04,2.7432,4.04a2.3613,2.3613,0,0,0,2.668-2.4463c0-5.3-9.34-6.7085-9.34-14.38,0-4.2623,2.5947-6.6714,7.1162-6.6714,3.7432,0,5.9678,2.7055,6.375,6.4858Z" transform="translate(-70.8713 -93.9966)"/><path class="cls-3" d="M101.6309,227.32l4.77,21.6592h-2.34l-1.29-6.42h-5.52l-1.29,6.42h-2.34l4.77-21.6592Zm-4.05,13.26h4.86l-2.4-11.64h-.06Z" transform="translate(-70.8713 -93.9966)"/><path class="cls-3" d="M124.91,227.32l3.78,16.3789h.06l3.69-16.3789h3.72v21.6592H134V229.12h-.06l-4.5,19.8594h-1.53l-4.5-19.8594h-.06v19.8594h-2.16V227.32Z" transform="translate(-70.8713 -93.9966)"/><path class="cls-3" d="M162.56,227.32v1.98H155V236.68h5.58v1.98H155V247h7.92v1.9795H152.66V227.32Z" transform="translate(-70.8713 -93.9966)"/><path class="cls-3" d="M178.8193,227.32h5.22c3.4795,0,5.9395,2.04,5.9395,5.6094a5.207,5.207,0,0,1-3.4795,5.3105l3.6592,10.7393h-2.46l-3.4795-10.26-3.06.12v10.14h-2.34Zm2.34,9.4795h2.04c3.3594,0,4.4395-1.3193,4.4395-3.75s-1.08-3.749-4.4395-3.749h-2.04Z" transform="translate(-70.8713 -93.9966)"/><path class="cls-3" d="M209.18,227.32v21.6592h-2.34V227.32Z" transform="translate(-70.8713 -93.9966)"/><path class="cls-3" d="M235.0381,233.86c-.3-3.42-1.38-4.86-3.21-4.86-2.7295,0-3.93,2.4-3.93,9.15s1.2,9.1494,3.93,9.1494c2.19,0,3.45-1.5,3.51-5.5205h2.34c-.06,4.8008-2.1592,7.5-5.85,7.5-3.8691,0-6.27-2.9395-6.27-11.1289s2.4-11.13,6.27-11.13c3.21,0,5.19,2.22,5.55,6.84Z" transform="translate(-70.8713 -93.9966)"/><path class="cls-3" d="M260.2979,227.32l4.7705,21.6592h-2.34l-1.29-6.42H255.918l-1.2891,6.42h-2.3408l4.7705-21.6592Zm-4.05,13.26h4.86l-2.4-11.64h-.06Z" transform="translate(-70.8713 -93.9966)"/></svg>